<?xml version="1.0" encoding="UTF-8" standalone="no"?>
<svg
   xmlns:dc="http://purl.org/dc/elements/1.1/"
   xmlns:cc="http://creativecommons.org/ns#"
   xmlns:rdf="http://www.w3.org/1999/02/22-rdf-syntax-ns#"
   xmlns:svg="http://www.w3.org/2000/svg"
   xmlns="http://www.w3.org/2000/svg"
   xmlns:sodipodi="http://sodipodi.sourceforge.net/DTD/sodipodi-0.dtd"
   xmlns:inkscape="http://www.inkscape.org/namespaces/inkscape"
   width="200"
   height="200"
   viewBox="0 0 200 200"
   fill="none"
   version="1.1"
   id="svg65"
   sodipodi:docname="COV logo (放大鏡）.svg"
   inkscape:version="1.0.2 (e86c8708, 2021-01-15)">
  <metadata
     id="metadata69">
    <rdf:RDF>
      <cc:Work
         rdf:about="">
        <dc:format>image/svg+xml</dc:format>
        <dc:type
           rdf:resource="http://purl.org/dc/dcmitype/StillImage" />
        <dc:title></dc:title>
      </cc:Work>
    </rdf:RDF>
  </metadata>
  <sodipodi:namedview
     pagecolor="#ffffff"
     bordercolor="#2f2f2f"
     borderopacity="0.90980392"
     objecttolerance="10"
     gridtolerance="10"
     guidetolerance="10"
     inkscape:pageopacity="0"
     inkscape:pageshadow="2"
     inkscape:window-width="1440"
     inkscape:window-height="812"
     id="namedview67"
     showgrid="false"
     borderlayer="false"
     inkscape:showpageshadow="false"
     showborder="false"
     inkscape:zoom="0.64411765"
     inkscape:cx="451.00457"
     inkscape:cy="458.36758"
     inkscape:window-x="0"
     inkscape:window-y="23"
     inkscape:window-maximized="0"
     inkscape:current-layer="svg65" />
  <path
     d="m 110.17142,80.73532 c -1.671,-9.4021 -9.352,-16.6594 -20.225998,-16.6594 -12.893,0 -22.071,10.25 -22.071,26.2365 0,15.986 9.178,26.236 22.071,26.236 10.873998,0 18.554998,-7.283 20.225998,-16.660004 h -4.689 c -1.421,7.008004 -7.530998,12.270004 -15.536998,12.270004 -9.676,0 -17.557,-7.656 -17.557,-21.846 0,-14.141 7.881,-21.8472 17.557,-21.8472 8.006,0 14.115998,5.2871 15.536998,12.2701 z"
     fill="#109b95"
     id="path54" />
  <path
     d="m 89.332422,131.71942 c 10.057,0 19.270998,-3.659 26.405998,-9.683 l 32.474,32.653 c 0.506,0.506 1.236,0.957 2.079,0.957 2.079,0 3.202,-1.577 3.202,-3.209 0,-0.789 -0.281,-1.464 -0.899,-2.083 l -32.473,-32.596 c 6.461,-7.319 10.45,-16.889 10.45,-27.36 0,-22.6881 -18.597,-41.266 -41.238998,-41.266 -22.641,0 -41.182,18.5779 -41.182,41.266 0,22.687 18.541,41.321 41.182,41.321 z m 0,-2.758 c -21.124,0 -38.429,-17.34 -38.429,-38.563 0,-21.168 17.305,-38.5075 38.429,-38.5075 21.124998,0 38.485998,17.3395 38.485998,38.5075 0,21.223 -17.361,38.563 -38.485998,38.563 z"
     fill="#109b95"
     id="path56" />
  <defs
     id="defs63">
    <clipPath
       id="clip0">
      <rect
         width="1020"
         height="215"
         fill="#ffffff"
         id="rect60"
         x="0"
         y="0" />
    </clipPath>
  </defs>
</svg>
