<svg width="1020" height="215" viewBox="0 0 1020 215" fill="none" xmlns="https//www.w3.org/2000/svg">
<g clip-path="url(#clip0)">
<rect width="1200" height="630" fill="white"/>
<path d="M102.297 91.6029C100.626 82.2008 92.9446 74.9435 82.0712 74.9435C69.1776 74.9435 60 85.1935 60 101.18C60 117.166 69.1776 127.416 82.0712 127.416C92.9446 127.416 100.626 120.133 102.297 110.756H97.6083C96.1867 117.764 90.0766 123.026 82.0712 123.026C72.3948 123.026 64.514 115.37 64.514 101.18C64.514 87.039 72.3948 79.3328 82.0712 79.3328C90.0766 79.3328 96.1867 84.6199 97.6083 91.6029H102.297Z" fill="#109B95"/>
<path d="M155.124 101.18C155.124 85.1935 145.947 74.9435 133.028 74.9435C120.135 74.9435 110.957 85.2185 110.957 101.18C110.957 117.141 120.11 127.416 133.028 127.416C145.947 127.416 155.124 117.166 155.124 101.18ZM150.585 101.18C150.61 114.921 143.104 123.026 133.028 123.026C122.928 123.026 115.471 114.871 115.471 101.18C115.471 87.4131 123.003 79.3328 133.028 79.3328C143.104 79.3328 150.585 87.4381 150.585 101.18Z" fill="#109B95"/>
<path d="M164.077 75.6418H159.189L177.769 126.717H182.757L201.337 75.6418H196.448L180.487 120.657H180.038L164.077 75.6418Z" fill="#109B95"/>
<path d="M214.754 75.6418H210.09V126.717H214.754V75.6418Z" fill="#109B95"/>
<path d="M243.297 126.717C258.659 126.717 267.413 117.116 267.438 101.055C267.438 85.1686 258.809 75.6418 244.195 75.6418H228.333V126.717H243.297ZM232.997 122.527V79.8316H243.92C256.315 79.8316 262.899 87.8371 262.924 101.055C262.924 114.397 256.19 122.527 243.022 122.527H232.997Z" fill="#109B95"/>
<path d="M298.493 99.0847H277.245V103.274H298.493V99.0847Z" fill="#109B95"/>
<path d="M325.228 75.6418H320.365L308.294 83.6473V88.4855L320.265 80.5299H320.564V126.717H325.228V75.6418Z" fill="#109B95"/>
<path d="M356.103 74.9435C346.327 74.8687 339.942 82.525 339.942 91.6029C339.942 101.204 347 108.237 355.529 108.237C361.016 108.237 365.879 105.27 368.273 100.781H368.597C368.597 115.145 363.759 123.226 355.405 123.226C349.594 123.226 346.002 119.31 345.105 113.849H340.516C341.464 121.904 347.15 127.416 355.405 127.416C367.176 127.416 372.987 115.644 372.987 98.96C372.987 81.1035 364.582 75.0184 356.103 74.9435ZM356.103 79.1333C362.462 79.1333 367.176 84.3207 367.749 91.3036C368.248 98.0123 362.886 104.048 356.103 104.048C349.444 104.048 344.456 98.5609 344.456 91.6029C344.456 84.7197 349.444 79.1333 356.103 79.1333Z" fill="#109B95"/>
<path d="M494.966 102.776C494.966 96.0921 499.455 91.9772 505.59 91.9772C511.525 91.9772 515.316 95.8677 515.316 102.177V126.717H519.78V101.903C519.78 92.7752 514.493 87.9121 506.712 87.9121C500.926 87.9121 497.16 90.4559 495.365 94.4212H494.966V75.642H490.526V126.717H494.966V102.776Z" fill="#109B95"/>
<path d="M531.52 126.717H535.984V88.4109H531.52V126.717ZM533.79 81.8269C535.61 81.8269 537.131 80.3805 537.131 78.6347C537.131 76.889 535.61 75.4425 533.79 75.4425C531.969 75.4425 530.473 76.889 530.473 78.6347C530.473 80.3805 531.969 81.8269 533.79 81.8269Z" fill="#109B95"/>
<path d="M552.164 102.776C552.164 96.0921 556.553 91.9772 562.588 91.9772C568.474 91.9772 572.265 95.9176 572.265 102.177V126.717H576.704V101.903C576.704 92.8251 571.441 87.9121 563.71 87.9121C558.099 87.9121 554.233 90.5058 552.438 94.4212H552.039V88.4109H547.724V126.717H552.164V102.776Z" fill="#109B95"/>
<path d="M603.881 127.516C611.562 127.516 616.725 123.351 618.471 118.537L614.256 117.166C612.784 120.607 609.318 123.45 603.881 123.45C596.05 123.45 591.087 117.739 590.888 108.886H619.418V106.691C619.418 93.8975 611.513 87.8872 603.208 87.8872C593.282 87.8872 586.424 96.1919 586.424 107.789C586.424 119.41 593.157 127.516 603.881 127.516ZM590.913 104.97C591.387 97.8379 596.2 91.9273 603.208 91.9273C610.066 91.9273 614.879 97.5885 614.879 104.97H590.913Z" fill="#109B95"/>
<path d="M654.938 96.8154C653.067 91.2789 648.977 87.8872 641.969 87.8872C634.238 87.8872 628.627 92.3014 628.627 98.611C628.627 103.748 631.744 107.24 638.403 108.836L644.663 110.332C648.878 111.33 650.898 113.5 650.898 116.567C650.898 120.557 647.082 123.525 641.196 123.525C635.959 123.525 632.692 121.156 631.62 116.617L627.355 117.665C628.702 124.049 633.764 127.516 641.271 127.516C649.701 127.516 655.487 122.877 655.487 116.368C655.487 111.255 652.269 107.838 645.86 106.267L640.074 104.846C635.311 103.649 633.091 101.728 633.091 98.4115C633.091 94.521 636.807 91.8026 641.969 91.8026C647.132 91.8026 649.676 94.521 650.873 97.9626L654.938 96.8154Z" fill="#109B95"/>
<path d="M680.694 127.516C688.375 127.516 693.537 123.351 695.283 118.537L691.069 117.166C689.597 120.607 686.131 123.45 680.694 123.45C672.863 123.45 667.9 117.739 667.7 108.886H696.231V106.691C696.231 93.8975 688.325 87.8872 680.02 87.8872C670.095 87.8872 663.236 96.1919 663.236 107.789C663.236 119.41 669.97 127.516 680.694 127.516ZM667.725 104.97C668.199 97.8379 673.013 91.9273 680.02 91.9273C686.879 91.9273 691.692 97.5885 691.692 104.97H667.725Z" fill="#109B95"/>
<path d="M726.763 126.717L732.224 111.33H753.672L759.134 126.717H764.022L745.442 75.642H740.454L721.875 126.717H726.763ZM733.721 107.14L742.774 81.7022H743.123L752.176 107.14H733.721Z" fill="#109B95"/>
<path d="M771.853 126.717H776.292V101.978C776.292 96.2917 780.656 92.1767 786.642 92.1767C787.814 92.1767 788.911 92.3762 789.31 92.4261V87.9121C788.712 87.8872 787.689 87.8373 786.966 87.8373C782.153 87.8373 778.038 90.431 776.491 94.2965H776.167V88.4109H771.853V126.717Z" fill="#109B95"/>
<path d="M810.683 127.516C818.664 127.516 824.275 122.478 825.297 115.545H820.808C819.786 120.433 815.771 123.45 810.683 123.45C803.176 123.45 798.213 116.916 798.213 107.589C798.213 98.3117 803.326 91.9273 810.683 91.9273C816.145 91.9273 819.836 95.4437 820.783 99.7831H825.272C824.225 92.6755 818.29 87.8872 810.608 87.8872C800.583 87.8872 793.749 96.2168 793.749 107.739C793.749 119.161 800.383 127.516 810.683 127.516Z" fill="#109B95"/>
<path d="M839.251 102.776C839.251 96.0921 843.74 91.9772 849.875 91.9772C855.81 91.9772 859.601 95.8677 859.601 102.177V126.717H864.065V101.903C864.065 92.7752 858.778 87.9121 850.997 87.9121C845.211 87.9121 841.446 90.4559 839.65 94.4212H839.251V75.642H834.812V126.717H839.251V102.776Z" fill="#109B95"/>
<path d="M875.805 126.717H880.27V88.4109H875.805V126.717ZM878.075 81.8269C879.896 81.8269 881.417 80.3805 881.417 78.6347C881.417 76.889 879.896 75.4425 878.075 75.4425C876.254 75.4425 874.758 76.889 874.758 78.6347C874.758 80.3805 876.254 81.8269 878.075 81.8269Z" fill="#109B95"/>
<path d="M921.662 88.4109H916.849L905.477 120.857H905.128L893.755 88.4109H888.942L902.933 126.717H907.671L921.662 88.4109Z" fill="#109B95"/>
<path d="M944.463 127.516C952.144 127.516 957.307 123.351 959.052 118.537L954.838 117.166C953.366 120.607 949.9 123.45 944.463 123.45C936.632 123.45 931.669 117.739 931.47 108.886H960V106.691C960 93.8975 952.094 87.8872 943.79 87.8872C933.864 87.8872 927.006 96.1919 927.006 107.789C927.006 119.41 933.739 127.516 944.463 127.516ZM931.495 104.97C931.968 97.8379 936.782 91.9273 943.79 91.9273C950.648 91.9273 955.461 97.5885 955.461 104.97H931.495Z" fill="#109B95"/>
<path d="M461.039 91.6029C459.368 82.2008 451.687 74.9435 440.813 74.9435C427.92 74.9435 418.742 85.1935 418.742 101.18C418.742 117.166 427.92 127.416 440.813 127.416C451.687 127.416 459.368 120.133 461.039 110.756H456.35C454.929 117.764 448.819 123.026 440.813 123.026C431.137 123.026 423.256 115.37 423.256 101.18C423.256 87.039 431.137 79.3328 440.813 79.3328C448.819 79.3328 454.929 84.6199 456.35 91.6029H461.039Z" fill="#109B95"/>
<path d="M440.2 142.587C450.257 142.587 459.471 138.928 466.606 132.904L499.08 165.557C499.586 166.063 500.316 166.514 501.159 166.514C503.238 166.514 504.361 164.937 504.361 163.305C504.361 162.516 504.08 161.841 503.462 161.222L470.989 128.626C477.45 121.307 481.439 111.737 481.439 101.266C481.439 78.5779 462.842 60 440.2 60C417.559 60 399.018 78.5779 399.018 101.266C399.018 123.953 417.559 142.587 440.2 142.587ZM440.2 139.829C419.076 139.829 401.771 122.489 401.771 101.266C401.771 80.098 419.076 62.7585 440.2 62.7585C461.325 62.7585 478.686 80.098 478.686 101.266C478.686 122.489 461.325 139.829 440.2 139.829Z" fill="#109B95"/>
</g>
<defs>
<clipPath id="clip0">
<rect width="1020" height="215" fill="white"/>
</clipPath>
</defs>
</svg>
