<?xml version="1.0" encoding="UTF-8" standalone="no"?>
<svg
   xmlns:dc="http://purl.org/dc/elements/1.1/"
   xmlns:cc="http://creativecommons.org/ns#"
   xmlns:rdf="http://www.w3.org/1999/02/22-rdf-syntax-ns#"
   xmlns:svg="http://www.w3.org/2000/svg"
   xmlns="http://www.w3.org/2000/svg"
   xmlns:sodipodi="http://sodipodi.sourceforge.net/DTD/sodipodi-0.dtd"
   xmlns:inkscape="http://www.inkscape.org/namespaces/inkscape"
   version="1.1"
   id="svg10"
   xml:space="preserve"
   width="150"
   height="100"
   viewBox="0 0 150 100"
   sodipodi:docname="OCF_150*100.svg"
   inkscape:version="1.0.2 (e86c8708, 2021-01-15)"><metadata
     id="metadata16"><rdf:RDF><cc:Work
         rdf:about=""><dc:format>image/svg+xml</dc:format><dc:type
           rdf:resource="http://purl.org/dc/dcmitype/StillImage" /><dc:title></dc:title></cc:Work></rdf:RDF></metadata><defs
     id="defs14"><clipPath
       clipPathUnits="userSpaceOnUse"
       id="clipPath26"><path
         d="M 0,1041.008 H 1041.008 V 0 H 0 Z"
         id="path24" /></clipPath></defs><sodipodi:namedview
     pagecolor="#ffffff"
     bordercolor="#666666"
     borderopacity="1"
     objecttolerance="10"
     gridtolerance="10"
     guidetolerance="10"
     inkscape:pageopacity="0"
     inkscape:pageshadow="2"
     inkscape:window-width="1440"
     inkscape:window-height="768"
     id="namedview12"
     showgrid="false"
     inkscape:zoom="2.3527045"
     inkscape:cx="73.875825"
     inkscape:cy="45.269823"
     inkscape:window-x="0"
     inkscape:window-y="23"
     inkscape:window-maximized="0"
     inkscape:current-layer="g18" /><g
     id="g18"
     inkscape:groupmode="layer"
     inkscape:label="OCF-LOGO"
     transform="matrix(1.3333333,0,0,-1.3333333,0,1388.0133)"><g
       id="g201"
       transform="matrix(0.10683824,0,0,0.10683824,0.64025945,948.15493)"><g
         id="g20"><g
           id="g22"
           clip-path="url(#clipPath26)"><g
             id="g28"
             transform="translate(111.0723,502.5501)"><path
               d="m 0,0 c -24.142,0 -43.712,19.571 -43.712,43.712 0,24.142 19.57,43.713 43.712,43.713 24.142,0 43.712,-19.571 43.712,-43.713 C 43.712,19.571 24.142,0 0,0 m 0,109.281 c -36.212,0 -65.568,-29.356 -65.568,-65.569 0,-36.212 29.356,-65.568 65.568,-65.568 36.212,0 65.568,29.356 65.568,65.568 0,36.213 -29.356,65.569 -65.568,65.569"
               style="fill:#595757;fill-opacity:1;fill-rule:nonzero;stroke:none"
               id="path30" /></g><path
             d="m 176.651,436.982 h -21.856 v 109.281 h 21.856 z"
             style="fill:#595757;fill-opacity:1;fill-rule:nonzero;stroke:none"
             id="path32" /><g
             id="g34"
             transform="translate(176.6407,546.2625)"><path
               d="M 0,0 C 0,24.142 19.571,43.712 43.712,43.712 V 65.568 C 7.5,65.568 -21.856,36.212 -21.856,0 c 0,-36.212 29.356,-65.568 65.568,-65.568 v 21.856 C 19.571,-43.712 0,-24.142 0,0"
               style="fill:#595757;fill-opacity:1;fill-rule:nonzero;stroke:none"
               id="path36" /></g><g
             id="g38"
             transform="translate(297.616,453.7342)"><path
               d="m 0,0 v 22.164 c 0,3.397 -0.708,5.972 -2.124,7.722 -1.416,1.75 -3.771,2.626 -7.065,2.626 -3.296,0 -5.651,-0.863 -7.067,-2.586 -1.416,-1.726 -2.123,-4.288 -2.123,-7.686 V -0.077 c 0,-2.884 0.81,-5.124 2.432,-6.719 1.622,-1.596 3.848,-2.393 6.68,-2.393 2.831,0 5.084,0.811 6.758,2.432 C -0.837,-5.135 0,-2.884 0,0 m 7.028,23.709 v -24.79 c 0,-5.201 -1.583,-9.023 -4.75,-11.468 -3.166,-2.446 -6.963,-3.668 -11.39,-3.668 -4.429,0 -8.251,1.222 -11.469,3.668 -3.217,2.445 -4.826,6.267 -4.826,11.468 v 24.867 c 0,5.301 1.454,9.317 4.363,12.046 2.908,2.728 6.912,4.094 12.009,4.094 5.097,0 9.047,-1.443 11.854,-4.324 2.805,-2.885 4.209,-6.849 4.209,-11.893"
               style="fill:#595757;fill-opacity:1;fill-rule:nonzero;stroke:none"
               id="path40" /></g><g
             id="g42"
             transform="translate(337.8499,452.9615)"><path
               d="m 0,0 v 10.04 c 0,2.625 -0.645,4.595 -1.931,5.908 -1.288,1.312 -3.089,1.969 -5.406,1.969 -2.316,0 -4.17,-0.644 -5.56,-1.93 -1.391,-1.288 -2.112,-3.142 -2.162,-5.561 v -11.12 c 0,-5.304 2.574,-7.955 7.722,-7.955 C -2.446,-8.649 0,-5.766 0,0 m -15.059,-29.113 -7.028,-1.699 v 54.906 h 6.719 l 0.154,-1.699 c 1.801,1.546 4.324,2.317 7.569,2.317 4.788,0 8.429,-1.389 10.926,-4.169 C 5.779,17.762 7.028,14.158 7.028,9.731 V -1.003 c 0,-4.686 -1.314,-8.277 -3.939,-10.773 -2.627,-2.497 -6.101,-3.745 -10.426,-3.745 -3.14,0 -5.714,0.721 -7.722,2.161 z"
               style="fill:#595757;fill-opacity:1;fill-rule:nonzero;stroke:none"
               id="path44" /></g><g
             id="g46"
             transform="translate(371.1322,459.8357)"><path
               d="m 0,0 v 5.019 c 0,2.11 -0.669,3.668 -2.008,4.673 -1.339,1.003 -2.999,1.505 -4.98,1.505 -1.984,0 -3.58,-0.606 -4.788,-1.814 -1.211,-1.211 -1.816,-2.793 -1.816,-4.75 v -5.406 z m -7.567,-15.908 c 2.881,0 6.255,1.028 10.115,3.087 l 2.626,-5.945 c -3.964,-2.421 -8.108,-3.629 -12.432,-3.629 -8.959,0 -13.438,3.756 -13.438,11.273 V 4.71 c 0,4.17 1.3,7.413 3.9,9.73 2.599,2.318 6.036,3.476 10.309,3.476 4.273,0 7.607,-1.147 10.002,-3.436 2.393,-2.293 3.59,-5.471 3.59,-9.538 v -11.12 l -20.697,-1.159 v -3.012 c 0,-2.059 0.605,-3.502 1.816,-4.324 1.208,-0.824 2.612,-1.235 4.209,-1.235"
               style="fill:#595757;fill-opacity:1;fill-rule:nonzero;stroke:none"
               id="path48" /></g><g
             id="g50"
             transform="translate(393.1406,475.8208)"><path
               d="m 0,0 c 2.265,1.235 4.761,1.853 7.492,1.853 2.727,0 5.223,-0.463 7.49,-1.389 4.375,-2.009 6.564,-5.742 6.564,-11.199 v -26.719 h -7.028 v 25.097 c 0,2.472 -0.747,4.35 -2.24,5.638 -1.492,1.286 -3.346,1.931 -5.559,1.931 C 4.505,-4.788 2.265,-5.38 0,-6.564 v -30.89 H -6.95 V 1.235 h 6.409 z"
               style="fill:#595757;fill-opacity:1;fill-rule:nonzero;stroke:none"
               id="path52" /></g><g
             id="g54"
             transform="translate(473.1461,446.6295)"><path
               d="m 0,0 1.158,-6.487 c -4.377,-1.699 -8.546,-2.549 -12.51,-2.549 -0.824,0 -2.073,0.079 -3.745,0.232 -1.674,0.155 -3.451,0.735 -5.329,1.738 -1.88,1.004 -3.398,2.599 -4.556,4.788 -1.159,2.188 -1.738,4.903 -1.738,8.148 v 24.788 c 0,3.912 0.552,6.873 1.661,8.881 1.105,2.008 2.792,3.707 5.057,5.097 2.318,1.288 5.071,1.931 8.264,1.931 3.963,0 7.619,-0.85 10.965,-2.549 L -2.78,37.995 c -2.471,0.926 -5.033,1.39 -7.684,1.39 -2.653,0 -4.852,-0.656 -6.603,-1.969 -1.751,-1.313 -2.626,-3.334 -2.626,-6.062 V 6.023 c 0,-2.316 0.567,-4.119 1.7,-5.405 1.44,-1.648 3.757,-2.471 6.95,-2.471 3.191,0 6.872,0.618 11.043,1.853"
               style="fill:#595757;fill-opacity:1;fill-rule:nonzero;stroke:none"
               id="path56" /></g><g
             id="g58"
             transform="translate(506.2747,438.3666)"><path
               d="m 0,0 h -6.641 l -0.232,1.699 c -2.059,-1.699 -4.53,-2.548 -7.413,-2.548 -9.68,0 -14.518,4.711 -14.518,14.132 v 25.406 h 7.028 V 13.901 c 0,-5.304 2.495,-7.955 7.49,-7.955 4.838,0 7.258,2.728 7.258,8.187 V 38.689 H 0 Z"
               style="fill:#595757;fill-opacity:1;fill-rule:nonzero;stroke:none"
               id="path60" /></g><path
             d="m 522.26,438.367 h -7.028 v 54.058 h 7.028 z"
             style="fill:#595757;fill-opacity:1;fill-rule:nonzero;stroke:none"
             id="path62" /><g
             id="g64"
             transform="translate(544.4219,442.9228)"><path
               d="m 0,0 -2.085,-5.561 c -7.002,0.619 -10.502,4.352 -10.502,11.199 v 43.864 h 7.104 V 34.133 H 2.548 L 0.696,27.492 H -5.483 V 5.638 C -5.483,2.393 -3.655,0.514 0,0"
               style="fill:#595757;fill-opacity:1;fill-rule:nonzero;stroke:none"
               id="path66" /></g><g
             id="g68"
             transform="translate(580.3309,438.3666)"><path
               d="m 0,0 h -6.641 l -0.232,1.699 c -2.059,-1.699 -4.53,-2.548 -7.413,-2.548 -9.68,0 -14.518,4.711 -14.518,14.132 v 25.406 h 7.028 V 13.901 c 0,-5.304 2.495,-7.955 7.49,-7.955 4.838,0 7.258,2.728 7.258,8.187 V 38.689 H 0 Z"
               style="fill:#595757;fill-opacity:1;fill-rule:nonzero;stroke:none"
               id="path70" /></g><g
             id="g72"
             transform="translate(594.9258,475.8977)"><path
               d="m 0,0 c 2.317,1.184 4.967,1.776 7.954,1.776 0.926,0 2.883,-0.283 5.87,-0.85 l -1.699,-6.717 c -1.39,0.668 -2.755,1.003 -4.094,1.003 -1.339,0 -2.6,-0.206 -3.784,-0.618 -2.78,-1.03 -4.17,-2.831 -4.17,-5.405 v -26.72 H -6.95 V 1.158 h 6.641 z"
               style="fill:#595757;fill-opacity:1;fill-rule:nonzero;stroke:none"
               id="path74" /></g><g
             id="g76"
             transform="translate(631.1436,459.8357)"><path
               d="m 0,0 v 5.019 c 0,2.11 -0.669,3.668 -2.008,4.673 -1.339,1.003 -2.999,1.505 -4.98,1.505 -1.982,0 -3.579,-0.606 -4.788,-1.814 -1.211,-1.211 -1.814,-2.793 -1.814,-4.75 v -5.406 z m -7.567,-15.908 c 2.883,0 6.255,1.028 10.115,3.087 l 2.627,-5.945 c -3.965,-2.421 -8.109,-3.629 -12.433,-3.629 -8.959,0 -13.437,3.756 -13.437,11.273 V 4.71 c 0,4.17 1.299,7.413 3.899,9.73 2.599,2.318 6.036,3.476 10.31,3.476 4.272,0 7.606,-1.147 10.001,-3.436 2.393,-2.293 3.59,-5.471 3.59,-9.538 V -6.178 L -13.59,-7.337 v -3.012 c 0,-2.059 0.603,-3.502 1.814,-4.324 1.209,-0.824 2.612,-1.235 4.209,-1.235"
               style="fill:#595757;fill-opacity:1;fill-rule:nonzero;stroke:none"
               id="path78" /></g><g
             id="g80"
             transform="translate(675.7808,438.3666)"><path
               d="M 0,0 H -7.028 V 54.058 H 18.766 V 47.107 H 0 V 31.893 H 11.661 L 9.189,25.098 H 0 Z"
               style="fill:#595757;fill-opacity:1;fill-rule:nonzero;stroke:none"
               id="path82" /></g><g
             id="g84"
             transform="translate(715.7067,451.8033)"><path
               d="m 0,0 v 10.966 c 0,5.457 -2.446,8.187 -7.337,8.187 -4.994,0 -7.49,-2.73 -7.49,-8.187 V 0 c 0,-2.42 0.694,-4.26 2.085,-5.521 1.39,-1.262 3.191,-1.892 5.405,-1.892 2.215,0 3.99,0.643 5.329,1.93 C -0.669,-4.196 0,-2.368 0,0 M 6.951,10.966 V 0.773 c 0,-4.325 -1.185,-7.903 -3.553,-10.735 -2.368,-2.832 -5.946,-4.247 -10.735,-4.247 -4.788,0 -8.405,1.428 -10.849,4.286 -2.446,2.857 -3.669,6.421 -3.669,10.696 v 10.193 c 0,4.891 1.248,8.636 3.745,11.237 2.498,2.599 6.036,3.899 10.62,3.899 4.582,0 8.133,-1.35 10.656,-4.054 2.523,-2.703 3.785,-6.397 3.785,-11.082"
               style="fill:#595757;fill-opacity:1;fill-rule:nonzero;stroke:none"
               id="path86" /></g><g
             id="g88"
             transform="translate(757.0982,438.3666)"><path
               d="m 0,0 h -6.641 l -0.232,1.699 c -2.059,-1.699 -4.53,-2.548 -7.413,-2.548 -9.68,0 -14.518,4.711 -14.518,14.132 v 25.406 h 7.028 V 13.901 c 0,-5.304 2.495,-7.955 7.49,-7.955 4.838,0 7.258,2.728 7.258,8.187 V 38.689 H 0 Z"
               style="fill:#595757;fill-opacity:1;fill-rule:nonzero;stroke:none"
               id="path90" /></g><g
             id="g92"
             transform="translate(771.9251,475.8208)"><path
               d="m 0,0 c 2.265,1.235 4.761,1.853 7.49,1.853 2.729,0 5.225,-0.463 7.492,-1.389 4.375,-2.009 6.564,-5.742 6.564,-11.199 v -26.719 h -7.028 v 25.097 c 0,2.472 -0.747,4.35 -2.24,5.638 -1.494,1.286 -3.346,1.931 -5.559,1.931 C 4.504,-4.788 2.265,-5.38 0,-6.564 v -30.89 H -6.951 V 1.235 h 6.41 z"
               style="fill:#595757;fill-opacity:1;fill-rule:nonzero;stroke:none"
               id="path94" /></g><g
             id="g96"
             transform="translate(826.214,469.0249)"><path
               d="m 0,0 c -2.265,1.184 -4.467,1.776 -6.602,1.776 -2.138,0 -4.005,-0.592 -5.6,-1.776 -1.596,-1.185 -2.393,-3.193 -2.393,-6.023 v -12.898 c 0,-2.625 1.44,-4.428 4.324,-5.405 1.544,-0.515 3.179,-0.772 4.904,-0.772 1.724,0 3.514,0.205 5.367,0.618 z m -14.982,7.182 c 2.523,1.03 5.175,1.545 7.954,1.545 2.781,0 5.123,-0.515 7.028,-1.545 V 23.4 h 6.951 v -54.058 c -4.43,-0.618 -8.522,-0.927 -12.28,-0.927 -3.758,0 -7.156,0.772 -10.194,2.317 -4.015,2.059 -6.023,5.637 -6.023,10.734 v 14.595 c 0,5.406 2.189,9.113 6.564,11.121"
               style="fill:#595757;fill-opacity:1;fill-rule:nonzero;stroke:none"
               id="path98" /></g><g
             id="g100"
             transform="translate(861.5823,444.4666)"><path
               d="m 0,0 v 14.75 c -2.729,1.595 -5.844,2.6 -9.344,3.012 -0.36,0.052 -0.965,0.077 -1.815,0.077 -0.849,0 -1.815,-0.374 -2.895,-1.12 -1.082,-0.747 -1.622,-2.123 -1.622,-4.13 V 7.492 c 0,-5.304 3.345,-7.954 10.038,-7.954 1.699,0 3.578,0.153 5.638,0.462 m -11.584,24.867 c 4.479,0 8.341,-1.03 11.584,-3.089 0,4.324 -3.193,6.487 -9.576,6.487 l 0.54,4.942 c 4.171,0 7.26,-0.49 9.268,-1.467 1.081,-0.567 2.033,-1.133 2.857,-1.699 0.823,-0.566 1.467,-1.312 1.931,-2.24 0.463,-0.926 0.85,-1.737 1.158,-2.432 0.309,-0.695 0.514,-1.635 0.618,-2.818 0.155,-1.803 0.232,-3.682 0.232,-5.638 V -6.1 C 1.672,-6.614 -2.6,-6.873 -5.791,-6.873 c -11.276,0 -16.913,4.608 -16.913,13.824 v 6.41 c 0,5.096 1.776,8.519 5.329,10.271 1.748,0.822 3.679,1.235 5.791,1.235"
               style="fill:#595757;fill-opacity:1;fill-rule:nonzero;stroke:none"
               id="path102" /></g><g
             id="g104"
             transform="translate(887.683,442.9228)"><path
               d="m 0,0 -2.085,-5.561 c -7.002,0.619 -10.502,4.352 -10.502,11.199 v 43.864 h 7.104 V 34.133 H 2.548 L 0.696,27.492 H -5.483 V 5.638 C -5.483,2.393 -3.655,0.514 0,0"
               style="fill:#595757;fill-opacity:1;fill-rule:nonzero;stroke:none"
               id="path106" /></g><path
             d="m 905.29,438.367 h -7.028 v 38.689 h 7.028 z m 0.463,51.007 c 0,-1.004 -0.386,-1.905 -1.159,-2.703 -0.771,-0.799 -1.66,-1.197 -2.663,-1.197 -1.005,0 -1.906,0.398 -2.704,1.197 -0.798,0.798 -1.196,1.699 -1.196,2.703 0,1.003 0.398,1.891 1.196,2.664 0.798,0.773 1.699,1.158 2.704,1.158 1.003,0 1.892,-0.385 2.663,-1.158 0.773,-0.773 1.159,-1.661 1.159,-2.664"
             style="fill:#595757;fill-opacity:1;fill-rule:nonzero;stroke:none"
             id="path108" /><g
             id="g110"
             transform="translate(939.8091,451.8033)"><path
               d="m 0,0 v 10.966 c 0,5.457 -2.446,8.187 -7.337,8.187 -4.994,0 -7.49,-2.73 -7.49,-8.187 V 0 c 0,-2.42 0.694,-4.26 2.085,-5.521 1.39,-1.262 3.191,-1.892 5.405,-1.892 2.214,0 3.99,0.643 5.329,1.93 C -0.669,-4.196 0,-2.368 0,0 M 6.951,10.966 V 0.773 c 0,-4.325 -1.185,-7.903 -3.553,-10.735 -2.368,-2.832 -5.946,-4.247 -10.735,-4.247 -4.788,0 -8.405,1.428 -10.849,4.286 -2.446,2.857 -3.669,6.421 -3.669,10.696 v 10.193 c 0,4.891 1.248,8.636 3.745,11.237 2.498,2.599 6.036,3.899 10.62,3.899 4.582,0 8.133,-1.35 10.656,-4.054 2.523,-2.703 3.785,-6.397 3.785,-11.082"
               style="fill:#595757;fill-opacity:1;fill-rule:nonzero;stroke:none"
               id="path112" /></g><g
             id="g114"
             transform="translate(961.5087,475.8208)"><path
               d="m 0,0 c 2.265,1.235 4.761,1.853 7.49,1.853 2.729,0 5.225,-0.463 7.492,-1.389 4.375,-2.009 6.564,-5.742 6.564,-11.199 v -26.719 h -7.028 v 25.097 c 0,2.472 -0.747,4.35 -2.24,5.638 -1.494,1.286 -3.346,1.931 -5.559,1.931 C 4.504,-4.788 2.265,-5.38 0,-6.564 v -30.89 H -6.951 V 1.235 h 6.41 z"
               style="fill:#595757;fill-opacity:1;fill-rule:nonzero;stroke:none"
               id="path116" /></g><path
             d="m 350.308,587.861 h -20.879 v -8.079 h 20.879 z m -20.879,6.714 h 20.879 v 6.925 h -20.879 z m 30.637,-65.993 c 0,-5.351 -1.154,-8.289 -4.617,-9.967 -3.357,-1.574 -8.603,-1.784 -16.367,-1.784 -0.42,2.728 -1.888,7.239 -3.253,9.968 5.247,-0.316 10.702,-0.21 12.381,-0.21 1.678,0 2.098,0.524 2.098,2.098 v 43.751 h -30.111 v 36.302 h 39.869 z m -37.875,30.636 H 309.81 v -9.862 h 12.381 z m 8.708,-17.941 V 518.3 h -8.708 v 22.977 H 309.6 c -0.839,-7.029 -4.196,-18.046 -13.849,-24.446 -1.469,1.678 -4.407,4.302 -6.505,5.771 7.974,4.826 11.017,12.904 11.855,18.675 h -11.96 v 8.079 h 12.17 v 9.862 h -10.386 v 7.869 h 50.99 v -7.869 h -11.016 v -9.862 h 13.01 v -8.079 z m -27.594,46.584 h -20.459 v -7.869 h 20.459 z m -20.459,6.714 h 20.459 v 6.925 h -20.459 z m 0,-21.822 v -56.132 h -9.652 v 92.119 h 39.344 v -35.987 z"
             style="fill:#595757;fill-opacity:1;fill-rule:nonzero;stroke:none"
             id="path118" /><g
             id="g120"
             transform="translate(434.969,584.1888)"><path
               d="m 0,0 c 2.099,-10.912 4.93,-20.879 8.917,-29.692 4.093,8.708 6.715,18.676 8.5,30.426 H 0.314 Z m -39.66,12.695 c -0.943,3.778 -3.147,9.863 -5.036,14.269 l 8.603,2.308 c 2.099,-4.406 4.407,-10.177 5.352,-13.954 z M 27.174,0.734 c -2.623,-16.157 -6.61,-29.377 -12.696,-40.393 5.456,-8.289 12.486,-14.899 21.299,-18.99 -2.098,-1.889 -5.245,-5.666 -6.61,-8.394 -8.498,4.406 -15.108,10.702 -20.459,18.466 -6.189,-7.764 -13.954,-14.06 -23.711,-19.095 -0.945,2.202 -3.673,6.609 -5.561,8.498 10.282,4.721 18.151,11.226 23.921,19.619 -3.882,7.555 -6.819,16.263 -9.232,25.706 -1.994,-4.092 -4.302,-7.765 -6.715,-11.017 -1.365,1.784 -4.407,5.036 -6.715,7.03 -0.63,-30.112 -1.364,-41.129 -3.882,-44.591 -1.784,-2.413 -3.567,-3.357 -6.505,-3.777 -2.519,-0.42 -6.924,-0.42 -11.226,-0.21 -0.316,2.623 -1.259,6.401 -2.518,8.919 3.776,-0.42 7.24,-0.42 8.917,-0.42 1.47,0 2.414,0.315 3.044,1.469 1.677,2.203 2.412,11.856 2.937,38.715 h -11.961 c 0,-17.102 -2.098,-34.833 -15.527,-49.417 -1.679,2.098 -4.827,4.721 -7.24,6.4 12.066,13.22 13.64,29.062 13.64,43.227 V 3.462 h -11.436 v 9.128 h 45.953 V 3.462 h -25.39 V -8.813 h 21.403 c 0,0 0,-2.938 -0.104,-4.197 l -0.105,-3.147 c 8.183,10.701 13.535,27.593 16.472,45.114 L 7.135,27.384 C 5.981,21.404 4.616,15.423 3.148,9.758 h 31.58 V 0.734 Z"
               style="fill:#595757;fill-opacity:1;fill-rule:nonzero;stroke:none"
               id="path122" /></g><g
             id="g124"
             transform="translate(505.7795,585.6572)"><path
               d="M 0,0 C 5.036,-12.38 12.066,-23.187 20.984,-32.419 29.483,-23.606 35.987,-12.904 40.708,0 Z M 51.621,0 C 46.06,-15.842 38.295,-28.643 28.433,-39.134 c 11.227,-9.128 24.866,-15.948 41.023,-19.934 -2.203,-2.099 -5.036,-6.191 -6.61,-9.024 -16.682,4.511 -30.635,11.961 -41.967,21.823 -11.646,-9.862 -25.915,-17.206 -42.912,-22.453 -1.154,2.519 -4.092,7.03 -6.085,9.338 16.893,4.512 30.637,11.017 41.758,20.145 C 3.462,-28.433 -4.302,-15.318 -10.177,0 h -16.157 v 9.443 h 45.43 c -1.26,4.302 -4.197,10.911 -7.03,15.842 l 10.283,3.043 c 3.042,-4.931 6.398,-11.646 7.763,-15.947 L 20.775,9.443 H 67.882 V 0 Z"
               style="fill:#595757;fill-opacity:1;fill-rule:nonzero;stroke:none"
               id="path126" /></g><g
             id="g128"
             transform="translate(662.2047,528.6868)"><path
               d="M 0,0 C 5.665,0 6.609,4.407 7.449,22.033 9.757,20.249 13.744,18.361 16.263,17.731 14.898,-1.888 12.485,-8.813 0.629,-8.813 h -18.78 c -11.541,0 -14.794,3.462 -14.794,16.052 v 75.437 h 9.339 V 54.978 h 36.93 V 45.64 h -36.93 V 7.029 C -23.606,1.154 -22.558,0 -17.311,0 Z m -42.913,80.997 c -2.831,-6.715 -6.399,-13.429 -10.28,-19.83 v -72.918 h -9.234 v 59.489 c -3.987,-5.246 -8.183,-9.967 -12.486,-13.954 -0.838,2.308 -3.566,7.554 -5.35,9.862 11.122,9.548 21.929,24.761 28.433,40.289 z"
               style="fill:#595757;fill-opacity:1;fill-rule:nonzero;stroke:none"
               id="path130" /></g><path
             d="m 718.537,563.52 h 35.673 v 6.295 h -35.673 z m 0,13.43 h 35.673 v 5.98 h -35.673 z m 0,13.114 h 35.673 v 5.875 h -35.673 z m 44.38,-34.623 c 5.876,-6.085 14.165,-11.436 22.243,-14.269 -2.099,-1.783 -4.931,-5.246 -6.401,-7.554 -10.071,4.407 -20.039,12.695 -26.439,21.823 h -31.266 c -2.517,-3.672 -5.77,-7.344 -9.232,-10.597 h 19.2 v 7.869 h 9.862 v -7.869 h 20.775 v -7.764 h -20.775 v -9.337 h 35.253 v -8.079 h -79.004 v 8.079 h 33.889 v 9.337 h -20.039 v 6.925 c -5.247,-4.722 -11.331,-8.709 -17.312,-11.541 -1.364,2.308 -4.197,5.771 -6.295,7.449 8.289,3.148 16.681,9.023 22.662,15.528 h -21.613 v 8.079 h 20.355 v 32.419 h -15.214 v 7.974 h 15.214 v 9.128 h 9.757 v -9.128 h 35.673 v 9.023 h 9.966 v -9.023 h 15.003 v -7.974 H 764.176 V 563.52 H 783.9 v -8.079 z"
             style="fill:#595757;fill-opacity:1;fill-rule:nonzero;stroke:none"
             id="path132" /><g
             id="g134"
             transform="translate(853.9781,532.0443)"><path
               d="m 0,0 c 3.566,5.036 7.973,13.01 10.177,18.78 l 9.442,-3.462 C 15.632,8.708 11.016,1.574 7.449,-3.148 Z M 9.443,50.361 C 1.258,55.292 -6.506,61.063 -12.801,67.358 -18.887,60.748 -26.021,55.082 -33.89,50.361 Z M -37.037,18.78 c 3.987,-5.56 8.184,-13.219 9.862,-18.15 l -8.498,-3.673 c -1.468,4.931 -5.561,12.801 -9.338,18.676 z M -7.974,41.338 V 28.643 H 27.174 V 19.83 H -7.974 V -3.567 h 40.183 v -8.918 h -90.02 v 8.918 h 39.45 V 19.83 h -34.623 v 8.813 h 34.623 v 12.695 h -21.928 v 5.456 c -4.932,-2.624 -9.967,-4.827 -15.214,-6.715 -1.364,2.833 -4.092,6.61 -6.504,9.023 19.514,5.98 38.504,17.522 48.472,32.945 l 9.128,-4.093 C -5.352,76.59 -6.191,75.227 -7.135,73.967 3.148,63.685 20.773,53.718 36.511,48.997 34.308,47.003 31.265,43.122 29.796,40.499 24.655,42.387 19.409,44.8 14.164,47.738 v -6.4 z"
               style="fill:#595757;fill-opacity:1;fill-rule:nonzero;stroke:none"
               id="path136" /></g><g
             id="g138"
             transform="translate(972.8409,576.9496)"><path
               d="m 0,0 h -23.292 v -14.479 h 11.751 l -6.505,1.994 c 1.889,3.357 4.093,8.708 5.247,12.275 l 8.183,-2.309 c -2.308,-4.511 -4.616,-8.918 -6.506,-11.96 H 0 Z m -14.793,17.521 c -4.301,2.623 -8.184,5.666 -11.541,8.813 -3.358,-3.147 -7.345,-6.19 -11.436,-8.813 z m 8.289,-61.797 h -40.185 v -5.875 h 40.185 z m -40.185,6.715 h 40.185 v 5.771 h -40.185 z m 4.617,36.931 c 2.308,-3.567 4.616,-8.393 5.351,-11.541 l -6.924,-2.308 h 12.379 V 0 h -22.767 v -14.479 h 10.072 c -0.735,3.252 -2.728,8.079 -4.931,11.751 z M -56.341,-25.076 H 3.462 v -34.518 h -9.966 v 2.833 h -40.185 v -3.253 h -9.652 z M 8.183,6.4 C 2.519,8.393 -3.253,10.806 -8.603,13.849 v -3.043 h -36.302 v 2.518 C -49.731,10.597 -54.872,8.393 -60.119,6.4 Z m -27.802,27.279 c -0.525,-0.63 -0.945,-1.364 -1.574,-1.994 C -11.436,22.662 6.295,14.688 22.663,11.226 20.669,9.547 17.942,6.085 16.472,3.776 13.955,4.511 11.227,5.35 8.603,6.295 V -20.879 H -62.321 V 5.56 c -2.623,-0.944 -5.141,-1.784 -7.764,-2.518 -0.839,1.784 -3.567,5.771 -5.246,7.449 18.99,4.827 37.561,13.955 47.109,26.23 z"
               style="fill:#595757;fill-opacity:1;fill-rule:nonzero;stroke:none"
               id="path140" /></g></g></g></g></g></svg>
