<?xml version="1.0" encoding="UTF-8" standalone="no"?>
<svg
   xmlns:dc="http://purl.org/dc/elements/1.1/"
   xmlns:cc="http://creativecommons.org/ns#"
   xmlns:rdf="http://www.w3.org/1999/02/22-rdf-syntax-ns#"
   xmlns:svg="http://www.w3.org/2000/svg"
   xmlns="http://www.w3.org/2000/svg"
   xmlns:sodipodi="http://sodipodi.sourceforge.net/DTD/sodipodi-0.dtd"
   xmlns:inkscape="http://www.inkscape.org/namespaces/inkscape"
   id="e27ec5aa-8cea-4e5a-a316-3b4adc2d60cd"
   data-name="圖層 1"
   viewBox="0 0 150 100"
   version="1.1"
   sodipodi:docname="Wikidata_150*100.svg"
   width="150"
   height="100"
   inkscape:version="1.0.2 (e86c8708, 2021-01-15)">
  <metadata
     id="metadata79">
    <rdf:RDF>
      <cc:Work
         rdf:about="">
        <dc:format>image/svg+xml</dc:format>
        <dc:type
           rdf:resource="http://purl.org/dc/dcmitype/StillImage" />
        <dc:title>工作區域 1</dc:title>
      </cc:Work>
    </rdf:RDF>
  </metadata>
  <sodipodi:namedview
     pagecolor="#ffffff"
     bordercolor="#666666"
     borderopacity="1"
     objecttolerance="10"
     gridtolerance="10"
     guidetolerance="10"
     inkscape:pageopacity="0"
     inkscape:pageshadow="2"
     inkscape:window-width="1324"
     inkscape:window-height="705"
     id="namedview77"
     showgrid="false"
     inkscape:zoom="3.1077021"
     inkscape:cx="77.117706"
     inkscape:cy="50.453956"
     inkscape:window-x="0"
     inkscape:window-y="23"
     inkscape:window-maximized="0"
     inkscape:current-layer="e27ec5aa-8cea-4e5a-a316-3b4adc2d60cd" />
  <defs
     id="defs12">
    <style
       id="style10">.a9fdcde2-22d5-4329-bdfa-48567a2431e8{fill:#900;}.ff0c71c9-d1a3-4ab4-af7d-130d36796789{fill:#396;}.a1d09911-5156-4bb7-8333-f7a6d4c3d7ff{fill:#069;}.b6d24f7d-f444-4137-8a93-ef4aa6a0fbd6{fill:#484848;}.a0a73d9d-ff44-49e1-ab78-401159223133{fill:#464646;}</style>
  </defs>
  <title
     id="title14">工作區域 1</title>
  <g
     id="g111"
     transform="matrix(0.10404169,0,0,0.10404169,22.979155,-2.020845)">
    <path
       class="a9fdcde2-22d5-4329-bdfa-48567a2431e8"
       d="m 150,586.5 h 25.23 V 153.89 H 150 Z m 52.15,0 h 77.38 V 153.89 H 202.15 Z M 304.77,153.89 v 432.59 h 77.38 V 153.89 Z"
       id="path16" />
    <path
       class="ff0c71c9-d1a3-4ab4-af7d-130d36796789"
       d="m 772.61,586.53 h 25.24 V 153.89 H 772.61 Z M 824.77,153.89 V 586.53 H 850 V 153.89 Z"
       id="path18" />
    <path
       class="ff0c71c9-d1a3-4ab4-af7d-130d36796789"
       d="m 433.46,489.7 v -2 l -0.67,1.1 -0.4,5.43 -1.53,-0.59 -7.35,-5.43 -0.5,-2 2.47,1.38 0.1,-1.23 -1.38,-0.49 c 0,0 0.89,-0.84 -0.4,-1.29 a 6.75,6.75 0 0 1 -2.07,-1.13 l -0.44,-1.09 -2.92,-2.66 c 0,0 -3,-3.66 -2,-5.29 1,-1.63 2.66,-3 2.12,-3.4 a 7,7 0 0 0 -1.08,-0.69 c -0.2,-0.15 -0.4,-1.19 -0.4,-1.19 a 7.48,7.48 0 0 0 -0.35,-1.78 h -0.51 L 412.6,459 h -1.09 l 0.2,-2.22 -1.71,-3.58 1.58,0.29 0.05,-1 h -1 c 0,0 -2,-4.5 -2,-5.63 a 27.49,27.49 0 0 0 -0.35,-3.26 v -2.6 0 145.6 h 25.24 v -95.8 c 0,-0.55 -0.08,-1 -0.08,-1 z"
       id="path20" />
    <path
       class="ff0c71c9-d1a3-4ab4-af7d-130d36796789"
       d="m 433.38,489.83 c 0,0 0,0.42 0.08,1 v -1.1 z"
       id="path22" />
    <path
       class="ff0c71c9-d1a3-4ab4-af7d-130d36796789"
       d="m 408.55,391 c 0,-0.07 -0.12,-0.27 -0.33,-0.5 v 0.44 c 0.18,0.06 0.3,0.12 0.33,0.06 z"
       id="path24" />
    <path
       class="ff0c71c9-d1a3-4ab4-af7d-130d36796789"
       d="m 409.88,362 0.4,-3.21 -1.68,1.21 0.84,-3.49 -1.09,-1.63 a 11.94,11.94 0 0 0 1.53,-2.27 c -0.05,-0.3 -1,-0.94 -1,-0.94 l 2.12,-1.58 2,-0.54 0.79,-1 0.89,-0.79 6.81,2.22 4.05,0.05 c 0,0 6.62,-1.48 6.91,-1.58 0.29,-0.1 0.2,-0.49 0.2,-0.49 l -9.92,1.58 -4,-1.78 -1.83,-1.48 c 0,0 0,-1.28 0.6,-1.53 a 8.13,8.13 0 0 1 1.62,-0.39 l 1.34,-1.29 2.76,-5.13 -0.55,-0.85 -0.61,-0.47 2.34,-4.88 1.3,-0.22 0.62,-1 0.47,-1.16 1.48,-3.29 1.27,-0.68 c 0,0 1.19,-1.12 -0.37,-1.52 -1.56,-0.4 -1.19,-0.43 -1.19,-0.43 l 0.8,-2 2.71,-0.18 2,-1.07 v -3.47 c 0,0 -0.07,0 -0.08,0.06 -0.11,0.25 -1.66,2.64 -1.66,2.64 0,0 -1.05,1.84 -2.39,0.68 l 4,-4.95 v -0.72 a 2.84,2.84 0 0 1 0.15,-0.33 V 153.89 h -25.29 v 210.4 -0.05 z"
       id="path26" />
    <path
       class="ff0c71c9-d1a3-4ab4-af7d-130d36796789"
       d="m 433.31,315.19 -4,4.95 c 1.34,1.16 2.39,-0.68 2.39,-0.68 0,0 1.55,-2.39 1.66,-2.64 0,0 0,0 0.08,-0.06 v -2.62 a 2.84,2.84 0 0 0 -0.15,0.33 z"
       id="path28" />
    <path
       class="ff0c71c9-d1a3-4ab4-af7d-130d36796789"
       d="m 412.25,383.34 c -0.41,-0.09 -3.54,-1.23 -4,-1.4 v 1.16 l 0.23,0.1 c 0,0 4.22,0.24 3.77,0.14 z"
       id="path30" />
    <path
       class="ff0c71c9-d1a3-4ab4-af7d-130d36796789"
       d="m 479.51,513.18 c 0,0 0,0.88 0,1.53 a 7.94,7.94 0 0 0 0.37,1.87 c 0,0 0.55,5.58 0.15,6.22 a 4.56,4.56 0 0 0 -0.52,1.19 10.07,10.07 0 0 1 0.52,3.35 19.56,19.56 0 0 1 -0.52,2.67 l -0.57,1.18 c 0,0 0.25,2.47 0.74,2.47 0.49,0 0.79,-0.25 0.79,0.2 a 29.39,29.39 0 0 1 -1.08,3.31 c 0,0 1.33,3.8 1,4.09 a 7.32,7.32 0 0 1 -0.89,0.69 l -1.83,2.87 -1.43,0.74 -1.14,0.59 -0.44,3.65 a 7.14,7.14 0 0 0 0.54,1.83 28.48,28.48 0 0 1 1.14,3 c 0,0 1.43,1 0.54,1.14 a 3.29,3.29 0 0 1 -1.38,0 c 0,0 -4.49,-4.45 -4.94,-4.59 -0.45,-0.14 -1.78,-0.45 -1.78,-0.45 l -1.62,-1.28 -0.65,-0.15 -1.51,1.64 c 0,0 0.45,0.79 0.25,1.09 -0.2,0.3 -2.07,2.32 -2.17,2 -0.1,-0.32 -1.43,-3.36 -1.43,-3.36 0,0 0.59,-3.45 0.24,-4.19 -0.2,-0.43 -0.94,-1.63 -1.53,-2.57 v 42.63 h 25.24 v -92.1 c -1.35,4.25 -2.71,8.41 -3,8.85 -0.6,0.9 -2.88,9.37 -3.09,9.89 z"
       id="path32" />
    <path
       class="ff0c71c9-d1a3-4ab4-af7d-130d36796789"
       d="m 461,537.31 c 0,0 -0.35,-1 0.09,-1.43 0.44,-0.43 1.29,-0.69 1.29,-1.08 0,-0.39 -1.16,-3.77 -2,-6.46 v 11.93 a 2.69,2.69 0 0 0 0.6,-1.08 12,12 0 0 0 0.02,-1.88 z"
       id="path34" />
    <path
       class="ff0c71c9-d1a3-4ab4-af7d-130d36796789"
       d="m 463.41,292.53 c 0.9,0.94 4.26,3.51 4.26,3.51 0,0 -3.54,-3.8 -4.44,-4.16 a 24.86,24.86 0 0 0 -2.85,-0.75 V 292 l 0.43,0.08 c 0.61,0.13 1.7,-0.49 2.6,0.45 z"
       id="path36" />
    <path
       class="ff0c71c9-d1a3-4ab4-af7d-130d36796789"
       d="m 465.61,264.2 2.28,-0.22 -1.84,-1.37 a 32.58,32.58 0 0 1 2,-3 5.93,5.93 0 0 1 2.89,-1.52 4.84,4.84 0 0 1 3,0.21 5.17,5.17 0 0 0 2.53,0.62 l 1.23,-1 c 0,0 -3,1.33 -3.33,0 a 2.42,2.42 0 0 1 0.83,-2.3 l 1.4,-1.62 2.28,-3.21 c 0,0 1.66,-1.63 1.41,-3.18 a 6.54,6.54 0 0 1 -0.08,-2.32 c 0,0 1.49,-5.38 3.15,-7.37 a 19.78,19.78 0 0 0 2.26,-3.4 v -80.6 H 460.38 V 271 l 2.52,-6 z"
       id="path38" />
    <path
       class="a1d09911-5156-4bb7-8333-f7a6d4c3d7ff"
       d="m 517.9,208.69 c 0,0 7.63,-1.66 8.71,-2.06 a 29.38,29.38 0 0 0 4,-2.56 l 1.92,0.22 c 0,0 1.84,4.55 2,5.05 0.16,0.5 2.24,1.85 2.24,1.85 0,0 2,0.32 1.81,0.14 -0.19,-0.18 -1.41,-1.15 -1.45,-1.26 -0.04,-0.11 -3,-5.82 -3,-5.82 l -1.37,-1.05 c 0,0 -2.57,-0.43 -2.13,-1.44 a 6.87,6.87 0 0 1 1.51,-2 l 1.41,-1.7 1.67,-3.58 1.44,-0.29 1.56,-2 4.08,-1.63 3.9,-0.9 3.07,0.61 c 0,0 2.42,1.19 2.68,2 0.26,0.81 0.9,3.61 0.9,3.61 l 2.21,3 2.45,0.9 1.12,-0.1 c 0,0 -0.18,1.33 -0.18,1.62 0,0.29 1.81,1.05 1.77,1.7 a 8,8 0 0 0 0,1 l 3.73,0.9 0.46,1.55 c 0,0 0.84,-1.84 2.25,-1.33 1.41,0.51 2.34,0.88 2.34,0.88 l 2.63,2 c 0,0 8,0.4 8.53,0.47 a 2.42,2.42 0 0 1 1.09,0.72 27.79,27.79 0 0 0 -0.16,4.55 11.35,11.35 0 0 0 1,1.42 l 0.29,1.08 0.21,2.09 0.34,1.16 3.9,-0.23 1.28,0.9 0.81,-0.32 c 0.11,0 0.1,-0.32 0.19,-0.19 v -65.76 h -77.43 v 56.63 a 11.57,11.57 0 0 1 2.72,-1.39 c 1.26,-0.26 3.5,-0.44 3.5,-0.44 z"
       id="path40" />
    <path
       class="a1d09911-5156-4bb7-8333-f7a6d4c3d7ff"
       d="m 583.79,224.72 a 5.84,5.84 0 0 0 -2.7,1.6 c -0.64,0.93 -7.17,9.35 -7.75,10.11 -0.58,0.76 -1.05,1.48 -1.05,1.48 l -1,7.75 0.27,4.13 c 0,0 0.88,3.71 1,4.34 0.12,0.63 0.41,2.41 0.41,2.41 l 1,4.68 a 15.83,15.83 0 0 1 1.31,2.09 c 0.41,0.86 1.41,0.91 0.87,1.36 a 6.71,6.71 0 0 1 -1.18,0.77 l 1.36,1.32 0.67,1.24 -0.73,1 v 3.86 l -2.54,1 c 0,0 -1.5,2.09 -0.68,2.82 0.82,0.73 2.27,0.63 1.5,1.22 -0.77,0.59 -1.05,0.82 -1.05,0.82 l -2.5,2.22 -0.68,1.55 -1.77,2.23 -0.63,5.58 -0.5,0.73 c 0,0 -0.19,4.13 -1.05,4.31 a 4.81,4.81 0 0 1 -1.77,0 c 0,0 -0.77,-2.08 -1.23,-1.54 a 3.65,3.65 0 0 1 -1.09,0.86 l -3.77,-1 c 0,0 -2.81,-0.09 -2.36,0.09 0.45,0.18 7.36,1.86 8.27,2.41 a 9.13,9.13 0 0 1 1.27,0.86 l -1.27,3 -2.32,3.73 -2.04,1.25 -1.54,2 -2.68,2.18 c 0,0 0.18,4.64 -0.32,5.68 -0.5,1.04 -1.32,2.86 -1.32,2.86 l -3,3.28 0.09,3 c 0,0 2.59,3.68 2.41,5 a 7.2,7.2 0 0 1 -1.09,2.68 7.47,7.47 0 0 0 -2,2.86 c -0.41,1.46 0.09,5.41 -0.23,6.27 -0.32,0.86 -1.41,7.72 -3.09,10.81 0,0 -0.32,1.73 -0.45,2.68 a 17.06,17.06 0 0 0 0,2.77 l -0.5,0.59 -1.34,2.86 c 0,0 -0.09,1.59 -0.09,2.45 0,0.86 0,1.55 0,1.55 l -2.63,8.81 c 0,0 0.64,-0.86 0,0.82 -0.64,1.68 -1.78,6.54 -1.78,6.54 0,0 0.64,4.54 0.28,5.41 a 4.9,4.9 0 0 1 -0.91,1.4 l -1.18,1.23 c 0,0 1.18,1 0.86,2 a 11.37,11.37 0 0 1 -0.59,1.5 c -0.18,0.46 -2.41,9.86 -2.41,9.86 l -0.73,1.27 -2.63,3.91 -2.32,7.54 -1.36,1.68 1.27,4 c 0,0 -0.54,3.41 -1.22,4.36 a 36.2,36.2 0 0 1 -3,3.86 9.85,9.85 0 0 0 -1.5,1.95 L 522,439 l -1.5,2.73 -2,1.68 -2,4.95 -3.09,4.27 -1.64,-0.24 v 134.14 h 77.39 V 221.74 a 2.43,2.43 0 0 1 -0.74,0.42 c 0,0 -4.42,2.53 -4.63,2.56 z"
       id="path42" />
    <polygon
       class="a1d09911-5156-4bb7-8333-f7a6d4c3d7ff"
       points="641.21,586.53 641.21,153.89 614.3,153.89 614.3,586.53 "
       id="polygon44" />
    <rect
       class="a1d09911-5156-4bb7-8333-f7a6d4c3d7ff"
       x="666.45001"
       y="153.89"
       width="77.379997"
       height="432.62"
       id="rect46" />
    <path
       class="b6d24f7d-f444-4137-8a93-ef4aa6a0fbd6"
       d="M 810.34,627.13 850,716.49 h -23.92 l -7.36,-17.66 h -40 l -6.65,17.66 h -23.59 l 36,-89.36 h 25.84 m 1.79,56.09 -14.39,-34.73 -13.12,34.73 h 27.51"
       id="path48" />
    <polyline
       class="b6d24f7d-f444-4137-8a93-ef4aa6a0fbd6"
       points="760.19 627.13 760.19 643.5 727.82 643.5 727.82 716.49 705.56 716.49 705.56 643.5 673.19 643.5 673.19 627.13 760.19 627.13"
       id="polyline50" />
    <path
       class="b6d24f7d-f444-4137-8a93-ef4aa6a0fbd6"
       d="m 645.05,627.13 39.66,89.36 h -23.93 l -7.35,-17.66 h -40 l -6.66,17.66 h -23.6 l 36,-89.36 h 25.85 m 1.79,56.09 -14.39,-34.73 -13.12,34.73 h 27.51"
       id="path52" />
    <path
       class="b6d24f7d-f444-4137-8a93-ef4aa6a0fbd6"
       d="m 494.66,627.13 h 39.4 q 22.85,0 36.08,12.53 13.23,12.53 13.31,32.34 0,20.79 -13.5,32.68 -13.5,11.89 -38.38,11.84 h -36.91 v -89.39 m 22.26,16.37 v 56.61 h 14.52 q 14.13,0 21.62,-7.74 7.49,-7.74 7.49,-20.53 0,-13.19 -7.62,-20.73 -7.62,-7.54 -21.75,-7.61 h -14.26"
       id="path54" />
    <polyline
       class="b6d24f7d-f444-4137-8a93-ef4aa6a0fbd6"
       points="474.06 627.13 474.06 716.49 451.8 716.49 451.8 627.13 474.06 627.13"
       id="polyline56" />
    <polyline
       class="b6d24f7d-f444-4137-8a93-ef4aa6a0fbd6"
       points="431.91 627.13 402.8 669.09 442.27 716.49 414.38 716.49 379 674.59 379 716.49 356.74 716.49 356.74 627.13 379 627.13 379 667.36 407.41 627.13 431.91 627.13"
       id="polyline58" />
    <polyline
       class="b6d24f7d-f444-4137-8a93-ef4aa6a0fbd6"
       points="336.15 627.13 336.15 716.49 313.89 716.49 313.89 627.13 336.15 627.13"
       id="polyline60" />
    <polyline
       class="b6d24f7d-f444-4137-8a93-ef4aa6a0fbd6"
       points="226.51 659.37 198.87 717.64 189.28 717.64 150 627.13 173.6 627.13 194.65 676.51 217.61 627.13 235.53 627.13 258.49 676.51 279.41 627.13 303.01 627.13 263.86 717.64 254.27 717.64 226.51 659.37"
       id="polyline62" />
    <path
       class="a0a73d9d-ff44-49e1-ab78-401159223133"
       d="M 186.59,753.32 H 150 v -21.56 h 99.65 v 21.56 h -36.59 v 92.79 h -26.47 z"
       id="path64" />
    <path
       class="a0a73d9d-ff44-49e1-ab78-401159223133"
       d="m 333.46,821.6 h -53.1 l -10.12,24.51 h -27.12 l 51,-114.35 h 26.13 l 51.13,114.35 h -27.8 z M 325.12,801.51 307,757.73 288.87,801.51 Z"
       id="path66" />
    <path
       class="a0a73d9d-ff44-49e1-ab78-401159223133"
       d="m 383.28,731.76 h 26.46 v 114.35 h -26.46 z"
       id="path68" />
    <path
       class="a0a73d9d-ff44-49e1-ab78-401159223133"
       d="m 609,731.76 -37.37,114.35 h -28.42 l -25.16,-77.44 -26,77.44 H 463.82 L 426.24,731.76 h 27.45 l 25.81,80.37 26.95,-80.37 H 531 l 26.13,81 26.63,-81 z"
       id="path70" />
    <path
       class="a0a73d9d-ff44-49e1-ab78-401159223133"
       d="m 695.3,821.6 h -53.09 l -10.13,24.51 H 605 l 51,-114.35 h 26.14 L 733.2,846.11 H 705.43 Z M 687,801.51 668.86,757.73 650.7,801.51 Z"
       id="path72" />
    <path
       class="a0a73d9d-ff44-49e1-ab78-401159223133"
       d="m 850,731.76 v 114.35 h -21.73 l -57,-69.43 v 69.43 H 745.12 V 731.76 H 767 l 56.85,69.42 v -69.42 z"
       id="path74" />
  </g>
</svg>
