<?xml version="1.0" encoding="UTF-8" standalone="no"?>
<svg
   xmlns:dc="http://purl.org/dc/elements/1.1/"
   xmlns:cc="http://creativecommons.org/ns#"
   xmlns:rdf="http://www.w3.org/1999/02/22-rdf-syntax-ns#"
   xmlns:svg="http://www.w3.org/2000/svg"
   xmlns="http://www.w3.org/2000/svg"
   xmlns:sodipodi="http://sodipodi.sourceforge.net/DTD/sodipodi-0.dtd"
   xmlns:inkscape="http://www.inkscape.org/namespaces/inkscape"
   version="1.1"
   id="svg10"
   xml:space="preserve"
   width="150mm"
   height="100mm"
   viewBox="0 0 566.92914 377.95276"
   sodipodi:docname="Doublethinklab_CI_logo_DTL.ai.svg"
   inkscape:version="1.0.2 (e86c8708, 2021-01-15)"><metadata
     id="metadata16"><rdf:RDF><cc:Work
         rdf:about=""><dc:format>image/svg+xml</dc:format><dc:type
           rdf:resource="http://purl.org/dc/dcmitype/StillImage" /><dc:title></dc:title></cc:Work></rdf:RDF></metadata><defs
     id="defs14"><clipPath
       clipPathUnits="userSpaceOnUse"
       id="clipPath28"><path
         d="M 0,506.888 H 484.506 V 0 H 0 Z"
         id="path26" /></clipPath></defs><sodipodi:namedview
     pagecolor="#ffffff"
     bordercolor="#666666"
     borderopacity="1"
     objecttolerance="10"
     gridtolerance="10"
     guidetolerance="10"
     inkscape:pageopacity="0"
     inkscape:pageshadow="2"
     inkscape:window-width="1381"
     inkscape:window-height="774"
     id="namedview12"
     showgrid="false"
     units="mm"
     width="150mm"
     inkscape:zoom="0.98986367"
     inkscape:cx="307.8504"
     inkscape:cy="233.87059"
     inkscape:window-x="0"
     inkscape:window-y="23"
     inkscape:window-maximized="0"
     inkscape:current-layer="g1353" /><g
     id="g18"
     inkscape:groupmode="layer"
     inkscape:label="Doublethinklab_CI_logo_DTL"
     transform="matrix(1.3333333,0,0,-1.3333333,0,675.85067)"><g
       id="g1353"
       transform="matrix(2.5991124,0,0,2.5991124,-474.8176,-127.21693)"><g
         id="g1397"><g
           id="g394"
           transform="translate(282.405,208.9621)"><path
             d="m 0,0 c 0.008,-1.636 -1.311,-2.969 -2.947,-2.978 -1.636,-0.007 -2.969,1.312 -2.978,2.948 -0.008,1.635 1.311,2.968 2.947,2.977 C -1.341,2.955 -0.008,1.636 0,0"
             style="fill:#231916;fill-opacity:1;fill-rule:nonzero;stroke:none"
             id="path396" /></g><g
           id="g398"
           transform="translate(270.9421,226.7346)"><path
             d="M 0,0 C -0.004,0.823 -0.681,1.493 -1.504,1.489 L -19.3,1.397 c -4.933,-0.025 -8.949,-4.082 -8.924,-9.014 l 0.019,-3.678 c 0.005,-0.823 -0.347,-2.069 -0.782,-2.768 l -4.055,-6.528 c -0.435,-0.699 -0.116,-1.269 0.707,-1.266 l 2.688,0.008 c 0.823,0.003 1.5,-0.668 1.504,-1.491 l 0.018,-3.57 c 0.026,-4.933 4.083,-8.948 9.016,-8.923 l 17.796,0.091 c 0.823,0.005 1.493,0.681 1.489,1.505 z"
             style="fill:#5cc2d9;fill-opacity:1;fill-rule:nonzero;stroke:none"
             id="path400" /></g><g
           id="g402"
           transform="translate(241.301,205.9416)"><path
             d="m 0,0 c 1.402,0 2.547,-1.138 2.555,-2.541 l 0.018,-3.571 c 0.022,-4.349 3.568,-7.872 7.912,-7.872 h 0.041 l 17.796,0.09 c 0.239,0.002 0.44,0.206 0.439,0.444 l -0.176,34.237 c -0.001,0.238 -0.203,0.44 -0.441,0.44 H 28.142 L 10.346,21.135 C 5.983,21.112 2.451,17.544 2.474,13.181 L 2.493,9.504 C 2.498,8.477 2.093,7.044 1.551,6.172 L -2.284,-0.001 -0.009,0 Z m 10.485,-16.096 c -5.505,0 -9.996,4.463 -10.025,9.973 L 0.442,-2.552 C 0.441,-2.313 0.238,-2.111 0,-2.111 H -0.002 L -2.69,-2.12 h -0.007 c -0.786,0 -1.421,0.332 -1.744,0.912 -0.325,0.582 -0.272,1.299 0.143,1.968 l 4.055,6.527 c 0.33,0.53 0.627,1.581 0.623,2.205 L 0.361,13.17 c -0.028,5.528 4.447,10.048 9.974,10.076 l 17.796,0.092 h 0.013 c 1.401,0 2.545,-1.137 2.553,-2.539 l 0.176,-34.237 c 0.007,-1.408 -1.132,-2.559 -2.539,-2.567 l -17.797,-0.091 z"
             style="fill:#5cc2d9;fill-opacity:1;fill-rule:nonzero;stroke:none"
             id="path404" /></g><g
           id="g406"
           transform="translate(248.6643,215.4543)"><path
             d="M 0,0 C 0.008,-1.636 1.341,-2.955 2.978,-2.947 4.613,-2.938 5.933,-1.605 5.924,0.03 5.916,1.667 4.583,2.986 2.947,2.978 1.311,2.969 -0.009,1.636 0,0"
             style="fill:#ffffff;fill-opacity:1;fill-rule:nonzero;stroke:none"
             id="path408" /></g><g
           id="g410"
           transform="translate(279.3445,220.5529)"><path
             d="m 0,0 h -0.042 l -17.795,-0.091 c -0.157,-0.001 -0.262,-0.083 -0.31,-0.132 -0.049,-0.049 -0.13,-0.155 -0.129,-0.311 l 0.176,-34.237 c 0.001,-0.239 0.203,-0.44 0.441,-0.44 h 0.002 l 17.796,0.092 c 4.363,0.022 7.894,3.591 7.872,7.954 l -0.019,3.569 c -0.006,1.407 1.132,2.559 2.538,2.569 l 2.27,0.015 -3.894,6.141 c -0.551,0.866 -0.97,2.294 -0.975,3.321 L 7.912,-7.873 C 7.89,-3.523 4.344,0 0,0 m -17.659,-37.322 c -1.402,0 -2.546,1.136 -2.553,2.539 l -0.176,34.237 c -0.004,0.681 0.259,1.322 0.74,1.809 0.481,0.485 1.12,0.755 1.8,0.758 l 17.796,0.09 C 5.477,2.096 9.996,-2.334 10.024,-7.861 l 0.019,-3.678 c 0.003,-0.625 0.311,-1.673 0.645,-2.199 l 4.123,-6.486 c 0.422,-0.665 0.482,-1.381 0.163,-1.967 -0.319,-0.585 -0.953,-0.924 -1.742,-0.929 l -2.687,-0.019 c -0.239,-0.002 -0.441,-0.206 -0.441,-0.446 l 0.019,-3.569 C 10.151,-32.683 5.677,-37.202 0.149,-37.23 l -17.795,-0.092 z"
             style="fill:#231916;fill-opacity:1;fill-rule:nonzero;stroke:none"
             id="path412" /></g><g
           id="g414"
           transform="translate(267.3615,155.1526)"><path
             d="m 0,0 c -0.1,0.21 -0.311,0.344 -0.543,0.344 h -1.81 V 4.566 C -2.354,4.822 -2.516,5.05 -2.757,5.134 -2.999,5.218 -3.267,5.141 -3.426,4.94 l -4.826,-6.032 c -0.143,-0.179 -0.171,-0.426 -0.073,-0.633 0.1,-0.21 0.311,-0.343 0.543,-0.344 h 1.81 v -4.222 c 0.001,-0.256 0.163,-0.483 0.404,-0.567 0.064,-0.024 0.131,-0.036 0.199,-0.037 0.182,-0.001 0.356,0.082 0.471,0.224 l 4.825,6.032 C 0.073,-0.458 0.101,-0.209 0,0"
             style="fill:#5cc2d9;fill-opacity:1;fill-rule:nonzero;stroke:none"
             id="path416" /></g><g
           id="g418"
           transform="translate(260.1228,158.7727)"><path
             d="m 0,0 c -0.1,0.209 -0.311,0.343 -0.543,0.343 h -1.81 V 4.565 C -2.354,4.821 -2.516,5.049 -2.757,5.133 -2.999,5.217 -3.267,5.14 -3.426,4.939 l -4.826,-6.032 c -0.131,-0.173 -0.159,-0.403 -0.072,-0.602 0.09,-0.222 0.303,-0.368 0.542,-0.374 h 1.81 v -4.223 c 0.001,-0.256 0.163,-0.482 0.404,-0.567 0.064,-0.024 0.131,-0.036 0.199,-0.037 0.183,0 0.356,0.083 0.471,0.224 l 4.826,6.032 C 0.073,-0.459 0.101,-0.21 0,0"
             style="fill:#5cc2d9;fill-opacity:1;fill-rule:nonzero;stroke:none"
             id="path420" /></g><g
           id="g422"
           transform="translate(225.6379,169.6594)"><path
             d="m 0,0 h 1.412 c 1.921,0 2.479,1.379 2.479,3.76 0,2.364 -0.558,3.76 -2.479,3.76 H 0 Z M -2.627,-2.397 V 9.916 h 3.99 c 4.17,0 5.254,-2.659 5.254,-6.156 0,-3.497 -1.084,-6.157 -5.254,-6.157 z"
             style="fill:#5cc2d9;fill-opacity:1;fill-rule:nonzero;stroke:none"
             id="path424" /></g><g
           id="g426"
           transform="translate(235.8786,171.3664)"><path
             d="m 0,0 c 0,-1.642 0.328,-2.232 1.231,-2.232 0.903,0 1.231,0.59 1.231,2.232 0,1.642 -0.328,2.233 -1.231,2.233 C 0.328,2.233 0,1.642 0,0 m -2.627,0 c 0,2.562 0.821,4.335 3.858,4.335 3.038,0 3.858,-1.773 3.858,-4.335 0,-2.562 -0.82,-4.334 -3.858,-4.334 -3.037,0 -3.858,1.772 -3.858,4.334"
             style="fill:#5cc2d9;fill-opacity:1;fill-rule:nonzero;stroke:none"
             id="path428" /></g><g
           id="g430"
           transform="translate(248.09,167.2619)"><path
             d="m 0,0 -0.329,0.591 c -0.919,-0.558 -1.953,-0.82 -2.857,-0.82 -2.232,0 -2.873,1.181 -2.873,2.757 v 5.681 h 2.627 V 2.923 c 0,-0.608 0.214,-1.019 0.92,-1.019 0.64,0 1.215,0.263 1.461,0.427 V 8.209 H 1.576 V 0 Z"
             style="fill:#5cc2d9;fill-opacity:1;fill-rule:nonzero;stroke:none"
             id="path432" /></g><g
           id="g434"
           transform="translate(253.7668,169.511)"><path
             d="m 0,0 c 0,0 0.509,-0.345 1.166,-0.345 1.215,0 1.478,0.788 1.478,2.2 0,1.396 -0.263,2.201 -1.478,2.201 C 0.509,4.056 0,3.711 0,3.711 Z M -2.627,-2.249 V 10.064 H 0 V 5.665 C 0.493,5.96 1.149,6.19 2.052,6.19 c 2.135,0 3.186,-1.313 3.186,-4.335 0,-3.02 -1.051,-4.334 -3.186,-4.334 -1.313,0 -2.085,0.394 -2.659,0.886 l -0.444,-0.656 z"
             style="fill:#5cc2d9;fill-opacity:1;fill-rule:nonzero;stroke:none"
             id="path436" /></g><g
           id="g438"
           transform="translate(263.5158,167.1965)"><path
             d="m 0,0 c 0,0 -0.345,-0.065 -0.755,-0.065 -1.412,0 -2.529,0.721 -2.529,2.314 v 10.13 h 2.611 V 2.61 C -0.673,2.298 -0.525,2.118 0,2.118 Z"
             style="fill:#5cc2d9;fill-opacity:1;fill-rule:nonzero;stroke:none"
             id="path440" /></g><g
           id="g442"
           transform="translate(266.9284,172.1057)"><path
             d="M 0,0 H 2.332 C 2.479,0.902 2.282,1.625 1.281,1.625 0.394,1.625 0,1.034 0,0 m 0,-1.609 c -0.065,-1.068 0.493,-1.379 1.773,-1.379 1.232,0 2.151,0.246 2.742,0.542 V -4.499 C 3.563,-4.893 2.414,-5.073 1.429,-5.073 c -2.709,0 -4.023,1.379 -4.023,4.334 0,2.955 1.297,4.335 3.842,4.335 3.514,0 3.76,-2.627 3.546,-5.205 z"
             style="fill:#5cc2d9;fill-opacity:1;fill-rule:nonzero;stroke:none"
             id="path444" /></g><g
           id="g446"
           transform="translate(278.2048,167.1965)"><path
             d="m 0,0 c -0.361,-0.099 -0.985,-0.164 -1.347,-0.164 -2.298,0 -3.168,0.969 -3.168,2.905 v 3.35 h -1.33 v 1.74 l 1.33,0.361 v 1.692 l 2.627,0.706 V 8.274 H 0.147 V 6.091 H -1.888 V 2.955 c 0,-0.641 0.246,-1.002 1.083,-1.002 0.345,0 0.674,0.067 0.805,0.099 z"
             style="fill:#5cc2d9;fill-opacity:1;fill-rule:nonzero;stroke:none"
             id="path448" /></g><g
           id="g450"
           transform="translate(282.0437,179.5754)"><path
             d="m 0,0 v -4.399 c 0.575,0.295 1.231,0.525 2.135,0.525 2.232,0 2.873,-1.183 2.873,-2.759 v -5.68 H 2.381 v 5.287 c 0,0.607 -0.213,1.017 -0.919,1.017 -0.641,0 -1.216,-0.262 -1.462,-0.427 v -5.877 H -2.627 V 0 Z"
             style="fill:#5cc2d9;fill-opacity:1;fill-rule:nonzero;stroke:none"
             id="path452" /></g><g
           id="g454"
           transform="translate(291.8093,167.1965)"><path
             d="m 0,0 c 0,0 -0.345,-0.065 -0.756,-0.065 -1.411,0 -2.528,0.721 -2.528,2.314 v 6.025 h 2.611 V 2.61 C -0.673,2.298 -0.525,2.118 0,2.118 Z m -1.971,12.215 c 0.87,0 1.561,-0.69 1.561,-1.56 0,-0.886 -0.691,-1.559 -1.561,-1.559 -0.886,0 -1.559,0.673 -1.559,1.559 0,0.87 0.673,1.56 1.559,1.56"
             style="fill:#5cc2d9;fill-opacity:1;fill-rule:nonzero;stroke:none"
             id="path456" /></g><g
           id="g458"
           transform="translate(294.5329,175.4709)"><path
             d="m 0,0 0.328,-0.591 c 0.92,0.559 1.954,0.821 2.857,0.821 2.233,0 2.874,-1.182 2.874,-2.758 V -8.209 H 3.432 v 5.287 c 0,0.608 -0.214,1.018 -0.92,1.018 -0.641,0 -1.215,-0.263 -1.461,-0.427 V -8.209 H -1.576 V 0 Z"
             style="fill:#5cc2d9;fill-opacity:1;fill-rule:nonzero;stroke:none"
             id="path460" /></g><g
           id="g462"
           transform="translate(304.528,172.844)"><path
             d="M 0,0 2.102,2.627 H 5.385 L 2.2,-0.723 5.631,-5.582 H 2.43 L 0.525,-2.479 0,-3.037 V -5.582 H -2.545 V 6.731 H 0 Z"
             style="fill:#5cc2d9;fill-opacity:1;fill-rule:nonzero;stroke:none"
             id="path464" /></g><g
           id="g466"
           transform="translate(225.6379,155.4074)"><path
             d="M 0,0 H 4.975 V -2.397 H -2.627 V 9.916 H 0 Z"
             style="fill:#5cc2d9;fill-opacity:1;fill-rule:nonzero;stroke:none"
             id="path468" /></g><g
           id="g470"
           transform="translate(235.4685,156.6545)"><path
             d="m 0,0 c -0.739,-0.098 -1.034,-0.459 -1.034,-1.1 0,-0.607 0.394,-0.968 0.952,-0.968 0.477,0 0.919,0.131 1.182,0.394 v 1.822 z m 1.1,2.102 c 0,0.377 -0.263,0.575 -0.968,0.575 -1.035,0 -2.234,-0.313 -2.956,-0.624 v 2.2 c 0.558,0.246 1.79,0.542 2.956,0.542 2.955,0 3.513,-1.265 3.513,-3.104 V -3.645 H 2.069 l -0.361,0.624 c -0.591,-0.525 -1.429,-0.853 -2.414,-0.853 -2.085,0 -2.791,1.379 -2.791,2.61 0,2.217 1.625,2.545 3.103,2.693 L 1.1,1.576 Z"
             style="fill:#5cc2d9;fill-opacity:1;fill-rule:nonzero;stroke:none"
             id="path472" /></g><g
           id="g474"
           transform="translate(243.9367,155.259)"><path
             d="m 0,0 c 0,0 0.509,-0.345 1.166,-0.345 1.215,0 1.478,0.788 1.478,2.2 0,1.396 -0.263,2.201 -1.478,2.201 C 0.509,4.056 0,3.711 0,3.711 Z M -2.627,-2.249 V 10.064 H 0 V 5.665 C 0.493,5.96 1.149,6.19 2.052,6.19 c 2.135,0 3.186,-1.313 3.186,-4.335 0,-3.02 -1.051,-4.334 -3.186,-4.334 -1.313,0 -2.085,0.394 -2.659,0.886 l -0.444,-0.656 z"
             style="fill:#5cc2d9;fill-opacity:1;fill-rule:nonzero;stroke:none"
             id="path476" /></g></g></g></g></svg>
