<svg width="32" height="32" viewBox="0 0 32 32" fill="none" xmlns="http://www.w3.org/2000/svg">
<path d="M14.2129 21.4668C15.8828 21.4668 17.416 20.9102 18.6562 19.9727L23.627 24.9531C23.793 25.1191 24.0273 25.2168 24.2715 25.2168C24.8184 25.2168 25.1797 24.7969 25.1797 24.2988C25.1797 24.0547 25.1016 23.8301 24.9258 23.6543L19.9746 18.6934C21 17.4238 21.6055 15.8223 21.6055 14.0742C21.6055 10.0117 18.2852 6.68164 14.2129 6.68164C10.1504 6.68164 6.82031 10.002 6.82031 14.0742C6.82031 18.1465 10.1406 21.4668 14.2129 21.4668ZM14.2129 20.2363C10.834 20.2363 8.06055 17.4531 8.06055 14.0742C8.06055 10.7051 10.834 7.92188 14.2129 7.92188C17.5918 7.92188 20.3652 10.7051 20.3652 14.0742C20.3652 17.4531 17.5918 20.2363 14.2129 20.2363Z" fill="#D1D1D1"/>
</svg>
